<?xml version="1.0" encoding="UTF-8" standalone="no"?>
<!DOCTYPE svg PUBLIC "-//W3C//DTD SVG 1.1//EN"
 "http://www.w3.org/Graphics/SVG/1.1/DTD/svg11.dtd">
<!-- Generated by graphviz version 2.44.1 (20200629.0846)
 -->
<!-- Title: hierarchy Pages: 1 -->
<svg width="360pt" height="136pt"
 viewBox="0.00 0.00 360.00 135.73" xmlns="http://www.w3.org/2000/svg" xmlns:xlink="http://www.w3.org/1999/xlink">
<g id="graph0" class="graph" transform="scale(0.24 0.24) rotate(0) translate(4 551)">
<title>hierarchy</title>
<polygon fill="white" stroke="transparent" points="-4,4 -4,-551 1468,-551 1468,4 -4,4"/>
<g id="clust2" class="cluster">
<title>cluster_ORM</title>
<polygon fill="none" stroke="black" points="923,-220 923,-349 1456,-349 1456,-220 923,-220"/>
<text text-anchor="middle" x="1189.5" y="-333.8" font-family="Times New Roman,serif" font-size="14.00">ORM</text>
</g>
<g id="clust7" class="cluster">
<title>cluster_jsoncpp</title>
<polygon fill="none" stroke="black" points="560,-87 560,-162 903,-162 903,-87 560,-87"/>
<text text-anchor="middle" x="731.5" y="-146.8" font-family="Times New Roman,serif" font-size="14.00">C++ ORM</text>
</g>
<g id="clust3" class="cluster">
<title>cluster_UI</title>
<polygon fill="none" stroke="black" points="8,-390 8,-539 714,-539 714,-390 8,-390"/>
<text text-anchor="middle" x="361" y="-523.8" font-family="Times New Roman,serif" font-size="14.00">Activity/Fragment</text>
</g>
<g id="clust4" class="cluster">
<title>cluster_JNI</title>
<polygon fill="none" stroke="black" points="172,-116 172,-168 242,-168 242,-116 172,-116"/>
</g>
<g id="clust1" class="cluster">
<title>cluster_Cursor</title>
<polygon fill="none" stroke="black" points="303,-253 303,-382 656.5,-382 656.5,-253 303,-253"/>
<text text-anchor="middle" x="479.75" y="-366.8" font-family="Times New Roman,serif" font-size="14.00">Cursor</text>
</g>
<g id="clust5" class="cluster">
<title>cluster_API</title>
<polygon fill="none" stroke="black" points="344,-8 344,-245 428,-245 428,-8 344,-8"/>
<text text-anchor="middle" x="386" y="-229.8" font-family="Times New Roman,serif" font-size="14.00">API</text>
</g>
<g id="clust6" class="cluster">
<title>cluster_libCurl</title>
<polygon fill="none" stroke="black" points="566.5,-170 566.5,-245 636.5,-245 636.5,-170 566.5,-170"/>
<text text-anchor="middle" x="601.5" y="-229.8" font-family="Times New Roman,serif" font-size="14.00">libCurl</text>
</g>
<!-- CursorHolder -->
<g id="node1" class="node">
<title>CursorHolder</title>
<polygon fill="none" stroke="black" points="648.5,-351 554.5,-351 554.5,-315 648.5,-315 648.5,-351"/>
<text text-anchor="middle" x="601.5" y="-329.3" font-family="Times New Roman,serif" font-size="14.00">CursorHolder</text>
</g>
<!-- SQLiteCursor -->
<g id="node10" class="node">
<title>SQLiteCursor</title>
<polygon fill="none" stroke="black" points="1207,-318 1112,-318 1112,-282 1207,-282 1207,-318"/>
<text text-anchor="middle" x="1159.5" y="-296.3" font-family="Times New Roman,serif" font-size="14.00">SQLiteCursor</text>
</g>
<!-- CursorHolder&#45;&gt;SQLiteCursor -->
<g id="edge23" class="edge">
<title>CursorHolder&#45;&gt;SQLiteCursor</title>
<path fill="none" stroke="black" d="M648.53,-336.79C733.05,-342.78 918.43,-351.41 1072,-327 1081.9,-325.43 1092.24,-322.96 1102.18,-320.15"/>
<polygon fill="black" stroke="black" points="1103.37,-323.44 1111.95,-317.24 1101.37,-316.74 1103.37,-323.44"/>
</g>
<!-- RecyclerCursorAdapter -->
<g id="node2" class="node">
<title>RecyclerCursorAdapter</title>
<polygon fill="none" stroke="black" points="461,-351 311,-351 311,-315 461,-315 461,-351"/>
<text text-anchor="middle" x="386" y="-329.3" font-family="Times New Roman,serif" font-size="14.00">RecyclerCursorAdapter</text>
</g>
<!-- RecyclerCursorAdapter&#45;&gt;CursorHolder -->
<g id="edge22" class="edge">
<title>RecyclerCursorAdapter&#45;&gt;CursorHolder</title>
<path fill="none" stroke="black" d="M461.07,-333C488.28,-333 518.61,-333 544.03,-333"/>
<polygon fill="black" stroke="black" points="544.23,-336.5 554.23,-333 544.23,-329.5 544.23,-336.5"/>
</g>
<!-- RecyclerManager -->
<g id="node3" class="node">
<title>RecyclerManager</title>
<polygon fill="none" stroke="black" points="443,-297 329,-297 329,-261 443,-261 443,-297"/>
<text text-anchor="middle" x="386" y="-275.3" font-family="Times New Roman,serif" font-size="14.00">RecyclerManager</text>
</g>
<!-- RecyclerView -->
<g id="node15" class="node">
<title>RecyclerView</title>
<polygon fill="none" stroke="black" points="433.5,-488 338.5,-488 338.5,-452 433.5,-452 433.5,-488"/>
<text text-anchor="middle" x="386" y="-466.3" font-family="Times New Roman,serif" font-size="14.00">RecyclerView</text>
</g>
<!-- RecyclerManager&#45;&gt;RecyclerView -->
<g id="edge15" class="edge">
<title>RecyclerManager&#45;&gt;RecyclerView</title>
<path fill="none" stroke="black" d="M328.86,-286.03C312.64,-291.2 297.18,-300.02 289,-315 276.33,-338.21 276.33,-410.79 289,-434 297.09,-448.82 312.32,-457.61 328.35,-462.8"/>
<polygon fill="black" stroke="black" points="327.8,-466.28 338.38,-465.59 329.68,-459.54 327.8,-466.28"/>
</g>
<!-- Model -->
<g id="node4" class="node">
<title>Model</title>
<polygon fill="none" stroke="black" points="1448,-318 1384,-318 1384,-282 1448,-282 1448,-318"/>
<text text-anchor="middle" x="1416" y="-296.3" font-family="Times New Roman,serif" font-size="14.00">Model...</text>
</g>
<!-- ORMContentProvider -->
<g id="node5" class="node">
<title>ORMContentProvider</title>
<polygon fill="none" stroke="black" points="1072,-318 931,-318 931,-282 1072,-282 1072,-318"/>
<text text-anchor="middle" x="1001.5" y="-296.3" font-family="Times New Roman,serif" font-size="14.00">ORMContentProvider</text>
</g>
<!-- ORMContentProvider&#45;&gt;SQLiteCursor -->
<g id="edge24" class="edge">
<title>ORMContentProvider&#45;&gt;SQLiteCursor</title>
<path fill="none" stroke="black" d="M1072.29,-300C1082.06,-300 1092,-300 1101.5,-300"/>
<polygon fill="black" stroke="black" points="1101.6,-303.5 1111.6,-300 1101.6,-296.5 1101.6,-303.5"/>
</g>
<!-- ORMDbFactory -->
<g id="node6" class="node">
<title>ORMDbFactory</title>
<polygon fill="none" stroke="black" points="1056.5,-264 946.5,-264 946.5,-228 1056.5,-228 1056.5,-264"/>
<text text-anchor="middle" x="1001.5" y="-242.3" font-family="Times New Roman,serif" font-size="14.00">ORMDbFactory</text>
</g>
<!-- ORMDbHelper -->
<g id="node9" class="node">
<title>ORMDbHelper</title>
<polygon fill="none" stroke="black" points="1211,-264 1108,-264 1108,-228 1211,-228 1211,-264"/>
<text text-anchor="middle" x="1159.5" y="-242.3" font-family="Times New Roman,serif" font-size="14.00">ORMDbHelper</text>
</g>
<!-- ORMDbFactory&#45;&gt;ORMDbHelper -->
<g id="edge28" class="edge">
<title>ORMDbFactory&#45;&gt;ORMDbHelper</title>
<path fill="none" stroke="black" d="M1056.62,-246C1069.88,-246 1084.15,-246 1097.69,-246"/>
<polygon fill="black" stroke="black" points="1097.88,-249.5 1107.88,-246 1097.88,-242.5 1097.88,-249.5"/>
</g>
<!-- ORMDbCache -->
<g id="node7" class="node">
<title>ORMDbCache</title>
<polygon fill="none" stroke="black" points="1348,-264 1247,-264 1247,-228 1348,-228 1348,-264"/>
<text text-anchor="middle" x="1297.5" y="-242.3" font-family="Times New Roman,serif" font-size="14.00">ORMDbCache</text>
</g>
<!-- ORMDbCache&#45;&gt;Model -->
<g id="edge27" class="edge">
<title>ORMDbCache&#45;&gt;Model</title>
<path fill="none" stroke="black" d="M1337.62,-264.13C1349.51,-269.64 1362.6,-275.71 1374.57,-281.26"/>
<polygon fill="black" stroke="black" points="1373.35,-284.55 1383.9,-285.58 1376.3,-278.2 1373.35,-284.55"/>
</g>
<!-- ORMTable -->
<g id="node8" class="node">
<title>ORMTable</title>
<polygon fill="none" stroke="black" points="1337.5,-318 1257.5,-318 1257.5,-282 1337.5,-282 1337.5,-318"/>
<text text-anchor="middle" x="1297.5" y="-296.3" font-family="Times New Roman,serif" font-size="14.00">ORMTable</text>
</g>
<!-- ORMTable&#45;&gt;Model -->
<g id="edge26" class="edge">
<title>ORMTable&#45;&gt;Model</title>
<path fill="none" stroke="black" d="M1337.62,-300C1349.27,-300 1362.08,-300 1373.86,-300"/>
<polygon fill="black" stroke="black" points="1373.9,-303.5 1383.9,-300 1373.9,-296.5 1373.9,-303.5"/>
</g>
<!-- ORMDbHelper&#45;&gt;ORMTable -->
<g id="edge25" class="edge">
<title>ORMDbHelper&#45;&gt;ORMTable</title>
<path fill="none" stroke="black" d="M1206.16,-264.13C1219.45,-269.41 1234.02,-275.19 1247.51,-280.55"/>
<polygon fill="black" stroke="black" points="1246.51,-283.92 1257.1,-284.36 1249.1,-277.41 1246.51,-283.92"/>
</g>
<!-- BaseActivity -->
<g id="node11" class="node">
<title>BaseActivity</title>
<polygon fill="none" stroke="black" points="103,-434 16,-434 16,-398 103,-398 103,-434"/>
<text text-anchor="middle" x="59.5" y="-412.3" font-family="Times New Roman,serif" font-size="14.00">BaseActivity</text>
</g>
<!-- BaseActivity&#45;&gt;RecyclerManager -->
<g id="edge19" class="edge">
<title>BaseActivity&#45;&gt;RecyclerManager</title>
<path fill="none" stroke="black" d="M96.95,-397.98C143.94,-375.08 228.49,-335.07 303,-306 308.15,-303.99 313.52,-302 318.93,-300.07"/>
<polygon fill="black" stroke="black" points="320.41,-303.26 328.69,-296.65 318.1,-296.65 320.41,-303.26"/>
</g>
<!-- BaseActivityInterface -->
<g id="node12" class="node">
<title>BaseActivityInterface</title>
<polygon fill="none" stroke="black" points="275,-434 139,-434 139,-398 275,-398 275,-434"/>
<text text-anchor="middle" x="207" y="-412.3" font-family="Times New Roman,serif" font-size="14.00">BaseActivityInterface</text>
</g>
<!-- BaseActivity&#45;&gt;BaseActivityInterface -->
<g id="edge12" class="edge">
<title>BaseActivity&#45;&gt;BaseActivityInterface</title>
<path fill="none" stroke="black" d="M103.37,-416C111.38,-416 119.98,-416 128.67,-416"/>
<polygon fill="black" stroke="black" points="128.87,-419.5 138.87,-416 128.87,-412.5 128.87,-419.5"/>
</g>
<!-- BaseFragment -->
<g id="node13" class="node">
<title>BaseFragment</title>
<polygon fill="none" stroke="black" points="255,-488 159,-488 159,-452 255,-452 255,-488"/>
<text text-anchor="middle" x="207" y="-466.3" font-family="Times New Roman,serif" font-size="14.00">BaseFragment</text>
</g>
<!-- BaseActivity&#45;&gt;BaseFragment -->
<g id="edge11" class="edge">
<title>BaseActivity&#45;&gt;BaseFragment</title>
<path fill="none" stroke="black" d="M103.37,-431.91C117.81,-437.27 134.15,-443.33 149.47,-449.02"/>
<polygon fill="black" stroke="black" points="148.27,-452.31 158.86,-452.51 150.7,-445.74 148.27,-452.31"/>
</g>
<!-- BaseActivity&#45;&gt;RecyclerView -->
<g id="edge10" class="edge">
<title>BaseActivity&#45;&gt;RecyclerView</title>
<path fill="none" stroke="black" d="M71.69,-434.29C84.95,-454.03 109.07,-484.32 139,-497 200.51,-523.05 278.05,-507.5 329.45,-491.27"/>
<polygon fill="black" stroke="black" points="330.64,-494.56 339.06,-488.13 328.46,-487.91 330.64,-494.56"/>
</g>
<!-- JNI -->
<g id="node17" class="node">
<title>JNI</title>
<polygon fill="none" stroke="black" points="234,-160 180,-160 180,-124 234,-124 234,-160"/>
<text text-anchor="middle" x="207" y="-138.3" font-family="Times New Roman,serif" font-size="14.00">JNI</text>
</g>
<!-- BaseActivity&#45;&gt;JNI -->
<g id="edge30" class="edge">
<title>BaseActivity&#45;&gt;JNI</title>
<path fill="none" stroke="black" d="M74.31,-390C101.86,-338.11 163.43,-222.16 191.53,-169.26"/>
<polygon fill="black" stroke="black" points="190.19,-178.39 192.27,-168 184.16,-174.82 190.19,-178.39"/>
</g>
<!-- BaseFragment&#45;&gt;RecyclerManager -->
<g id="edge20" class="edge">
<title>BaseFragment&#45;&gt;RecyclerManager</title>
<path fill="none" stroke="black" d="M255.18,-457.97C262.68,-454.23 269.7,-449.36 275,-443 314.78,-395.25 261.69,-352.43 303,-306 307.62,-300.81 313.25,-296.61 319.39,-293.22"/>
<polygon fill="black" stroke="black" points="321.14,-296.26 328.66,-288.81 318.13,-289.94 321.14,-296.26"/>
</g>
<!-- FragmentInterface -->
<g id="node14" class="node">
<title>FragmentInterface</title>
<polygon fill="none" stroke="black" points="445,-434 327,-434 327,-398 445,-398 445,-434"/>
<text text-anchor="middle" x="386" y="-412.3" font-family="Times New Roman,serif" font-size="14.00">FragmentInterface</text>
</g>
<!-- BaseFragment&#45;&gt;FragmentInterface -->
<g id="edge14" class="edge">
<title>BaseFragment&#45;&gt;FragmentInterface</title>
<path fill="none" stroke="black" d="M255.43,-455.53C274.35,-449.76 296.49,-443 317.05,-436.73"/>
<polygon fill="black" stroke="black" points="318.14,-440.06 326.69,-433.79 316.1,-433.36 318.14,-440.06"/>
</g>
<!-- BaseFragment&#45;&gt;RecyclerView -->
<g id="edge13" class="edge">
<title>BaseFragment&#45;&gt;RecyclerView</title>
<path fill="none" stroke="black" d="M255.43,-470C277.82,-470 304.72,-470 328.19,-470"/>
<polygon fill="black" stroke="black" points="328.36,-473.5 338.36,-470 328.36,-466.5 328.36,-473.5"/>
</g>
<!-- RecyclerView&#45;&gt;CursorHolder -->
<g id="edge21" class="edge">
<title>RecyclerView&#45;&gt;CursorHolder</title>
<path fill="none" stroke="black" d="M433.69,-458.25C443.36,-454.42 453.02,-449.44 461,-443 484.32,-424.19 474.88,-406.21 497,-386 510.96,-373.25 528.56,-362.73 545.26,-354.52"/>
<polygon fill="black" stroke="black" points="546.87,-357.63 554.42,-350.2 543.88,-351.3 546.87,-357.63"/>
</g>
<!-- RecyclerView&#45;&gt;Model -->
<g id="edge16" class="edge">
<title>RecyclerView&#45;&gt;Model</title>
<path fill="none" stroke="black" d="M433.76,-469.6C506.14,-469.02 649.67,-468 771.5,-468 771.5,-468 771.5,-468 1160.5,-468 1253.13,-468 1274.44,-433.3 1348,-377 1366.81,-362.6 1384.25,-342.24 1396.62,-326.07"/>
<polygon fill="black" stroke="black" points="1399.42,-328.16 1402.6,-318.05 1393.82,-323.97 1399.42,-328.16"/>
</g>
<!-- BaseModelViewInterface -->
<g id="node16" class="node">
<title>BaseModelViewInterface</title>
<polygon fill="none" stroke="black" points="706,-438 497,-438 497,-402 706,-402 706,-438"/>
<text text-anchor="middle" x="601.5" y="-416.3" font-family="Times New Roman,serif" font-size="14.00">BaseModelViewInterface&lt;Model&gt;</text>
</g>
<!-- RecyclerView&#45;&gt;BaseModelViewInterface -->
<g id="edge17" class="edge">
<title>RecyclerView&#45;&gt;BaseModelViewInterface</title>
<path fill="none" stroke="black" d="M433.59,-459.09C456.97,-453.61 486.08,-446.8 513.4,-440.4"/>
<polygon fill="black" stroke="black" points="514.44,-443.75 523.38,-438.06 512.84,-436.93 514.44,-443.75"/>
</g>
<!-- BaseModelViewInterface&#45;&gt;Model -->
<g id="edge18" class="edge">
<title>BaseModelViewInterface&#45;&gt;Model</title>
<path fill="none" stroke="black" d="M706.21,-407.33C754.67,-402.44 813.21,-398 866,-398 866,-398 866,-398 1160.5,-398 1243.01,-398 1331.12,-352.59 1378.97,-323.59"/>
<polygon fill="black" stroke="black" points="1381.03,-326.43 1387.71,-318.2 1377.36,-320.47 1381.03,-326.43"/>
</g>
<!-- apiGet -->
<g id="node18" class="node">
<title>apiGet</title>
<polygon fill="none" stroke="black" points="413,-214 359,-214 359,-178 413,-178 413,-214"/>
<text text-anchor="middle" x="386" y="-192.3" font-family="Times New Roman,serif" font-size="14.00">apiGet</text>
</g>
<!-- JNI&#45;&gt;apiGet -->
<g id="edge1" class="edge">
<title>JNI&#45;&gt;apiGet</title>
<path fill="none" stroke="black" d="M242,-152.37C268.1,-160.34 304.58,-171.46 334.15,-180.49"/>
<polygon fill="black" stroke="black" points="333.42,-183.92 344,-183.49 335.46,-177.23 333.42,-183.92"/>
</g>
<!-- apiPost -->
<g id="node19" class="node">
<title>apiPost</title>
<polygon fill="none" stroke="black" points="415.5,-160 356.5,-160 356.5,-124 415.5,-124 415.5,-160"/>
<text text-anchor="middle" x="386" y="-138.3" font-family="Times New Roman,serif" font-size="14.00">apiPost</text>
</g>
<!-- JNI&#45;&gt;apiPost -->
<g id="edge2" class="edge">
<title>JNI&#45;&gt;apiPost</title>
<path fill="none" stroke="black" d="M242,-142C267.98,-142 304.23,-142 333.73,-142"/>
<polygon fill="black" stroke="black" points="334,-145.5 344,-142 334,-138.5 334,-145.5"/>
</g>
<!-- apiPut -->
<g id="node20" class="node">
<title>apiPut</title>
<polygon fill="none" stroke="black" points="413,-106 359,-106 359,-70 413,-70 413,-106"/>
<text text-anchor="middle" x="386" y="-84.3" font-family="Times New Roman,serif" font-size="14.00">apiPut</text>
</g>
<!-- JNI&#45;&gt;apiPut -->
<g id="edge3" class="edge">
<title>JNI&#45;&gt;apiPut</title>
<path fill="none" stroke="black" d="M242,-131.63C268.1,-123.66 304.58,-112.54 334.15,-103.51"/>
<polygon fill="black" stroke="black" points="335.46,-106.77 344,-100.51 333.42,-100.08 335.46,-106.77"/>
</g>
<!-- apiDelete -->
<g id="node21" class="node">
<title>apiDelete</title>
<polygon fill="none" stroke="black" points="420,-52 352,-52 352,-16 420,-16 420,-52"/>
<text text-anchor="middle" x="386" y="-30.3" font-family="Times New Roman,serif" font-size="14.00">apiDelete</text>
</g>
<!-- JNI&#45;&gt;apiDelete -->
<g id="edge4" class="edge">
<title>JNI&#45;&gt;apiDelete</title>
<path fill="none" stroke="black" d="M232.89,-116C250.94,-98.41 276.71,-75.77 303,-61 315.08,-54.21 329.12,-48.81 342.14,-44.67"/>
<polygon fill="black" stroke="black" points="336.59,-51.32 344,-43.75 333.48,-45.05 336.59,-51.32"/>
</g>
<!-- libCurl -->
<g id="node22" class="node">
<title>libCurl</title>
<polygon fill="none" stroke="black" points="628.5,-214 574.5,-214 574.5,-178 628.5,-178 628.5,-214"/>
<text text-anchor="middle" x="601.5" y="-192.3" font-family="Times New Roman,serif" font-size="14.00">libCurl</text>
</g>
<!-- apiGet&#45;&gt;libCurl -->
<g id="edge6" class="edge">
<title>apiGet&#45;&gt;libCurl</title>
<path fill="none" stroke="black" d="M428,-196C467.5,-196 526.68,-196 564.44,-196"/>
<polygon fill="black" stroke="black" points="556.5,-199.5 566.5,-196 556.5,-192.5 556.5,-199.5"/>
</g>
<!-- JsonCpp -->
<g id="node23" class="node">
<title>JsonCpp</title>
<polygon fill="none" stroke="black" points="635,-131 568,-131 568,-95 635,-95 635,-131"/>
<text text-anchor="middle" x="601.5" y="-109.3" font-family="Times New Roman,serif" font-size="14.00">JsonCpp</text>
</g>
<!-- apiGet&#45;&gt;JsonCpp -->
<g id="edge5" class="edge">
<title>apiGet&#45;&gt;JsonCpp</title>
<path fill="none" stroke="black" d="M428,-181.31C438.76,-177.38 450.34,-173.08 461,-169 493.92,-156.39 530.94,-141.5 558.56,-130.24"/>
<polygon fill="black" stroke="black" points="553.05,-137.42 560,-129.42 549.58,-131.33 553.05,-137.42"/>
</g>
<!-- Cloud -->
<g id="node26" class="node">
<title>Cloud</title>
<path fill="lightgrey" stroke="black" d="M799.5,-210.73C799.5,-212.53 787.4,-214 772.5,-214 757.6,-214 745.5,-212.53 745.5,-210.73 745.5,-210.73 745.5,-181.27 745.5,-181.27 745.5,-179.47 757.6,-178 772.5,-178 787.4,-178 799.5,-179.47 799.5,-181.27 799.5,-181.27 799.5,-210.73 799.5,-210.73"/>
<path fill="none" stroke="black" d="M799.5,-210.73C799.5,-208.92 787.4,-207.45 772.5,-207.45 757.6,-207.45 745.5,-208.92 745.5,-210.73"/>
<text text-anchor="middle" x="772.5" y="-192.3" font-family="Times New Roman,serif" font-size="14.00">Cloud</text>
</g>
<!-- libCurl&#45;&gt;Cloud -->
<g id="edge29" class="edge">
<title>libCurl&#45;&gt;Cloud</title>
<path fill="none" stroke="black" d="M628.54,-196C657.07,-196 703.05,-196 735.13,-196"/>
<polygon fill="black" stroke="black" points="735.43,-199.5 745.43,-196 735.43,-192.5 735.43,-199.5"/>
</g>
<!-- Schema -->
<g id="node24" class="node">
<title>Schema</title>
<polygon fill="none" stroke="black" points="803,-131 742,-131 742,-95 803,-95 803,-131"/>
<text text-anchor="middle" x="772.5" y="-109.3" font-family="Times New Roman,serif" font-size="14.00">Schema</text>
</g>
<!-- JsonCpp&#45;&gt;Schema -->
<g id="edge7" class="edge">
<title>JsonCpp&#45;&gt;Schema</title>
<path fill="none" stroke="black" d="M635.08,-113C662.59,-113 702.08,-113 731.5,-113"/>
<polygon fill="black" stroke="black" points="731.84,-116.5 741.84,-113 731.84,-109.5 731.84,-116.5"/>
</g>
<!-- SQLite -->
<g id="node25" class="node">
<title>SQLite</title>
<polygon fill="none" stroke="black" points="895,-131 839,-131 839,-95 895,-95 895,-131"/>
<text text-anchor="middle" x="867" y="-109.3" font-family="Times New Roman,serif" font-size="14.00">SQLite</text>
</g>
<!-- Schema&#45;&gt;SQLite -->
<g id="edge8" class="edge">
<title>Schema&#45;&gt;SQLite</title>
<path fill="none" stroke="black" d="M803.02,-113C811.22,-113 820.22,-113 828.79,-113"/>
<polygon fill="black" stroke="black" points="828.95,-116.5 838.95,-113 828.95,-109.5 828.95,-116.5"/>
</g>
<!-- SQLite&#45;&gt;ORMContentProvider -->
<g id="edge9" class="edge">
<title>SQLite&#45;&gt;ORMContentProvider</title>
<path fill="none" stroke="black" d="M869.18,-131.02C872.28,-163.75 883.41,-233.25 923,-273 923.93,-273.94 924.9,-274.84 925.9,-275.71"/>
<polygon fill="black" stroke="black" points="923.97,-278.65 934.08,-281.81 928.16,-273.03 923.97,-278.65"/>
</g>
</g>
</svg>
