<?xml version="1.0" encoding="UTF-8" standalone="no"?>
<!DOCTYPE svg PUBLIC "-//W3C//DTD SVG 1.1//EN"
 "http://www.w3.org/Graphics/SVG/1.1/DTD/svg11.dtd">
<!-- Generated by graphviz version 2.44.1 (20200629.0846)
 -->
<!-- Title: hierarchy Pages: 1 -->
<svg width="360pt" height="94pt"
 viewBox="0.00 0.00 360.00 93.85" xmlns="http://www.w3.org/2000/svg" xmlns:xlink="http://www.w3.org/1999/xlink">
<g id="graph0" class="graph" transform="scale(0.21 0.21) rotate(0) translate(4 434.5)">
<title>hierarchy</title>
<polygon fill="white" stroke="transparent" points="-4,4 -4,-434.5 1678,-434.5 1678,4 -4,4"/>
<g id="clust2" class="cluster">
<title>cluster_MyFiziqUtils</title>
<polygon fill="none" stroke="black" points="146,-254.5 146,-341.5 249,-341.5 249,-254.5 146,-254.5"/>
<text text-anchor="middle" x="197.5" y="-326.3" font-family="Times New Roman,serif" font-size="14.00">MyFiziqUtils</text>
</g>
<g id="clust3" class="cluster">
<title>cluster_MFZJniUtils</title>
<polygon fill="none" stroke="black" points="269,-254.5 269,-341.5 401,-341.5 401,-254.5 269,-254.5"/>
<text text-anchor="middle" x="335" y="-326.3" font-family="Times New Roman,serif" font-size="14.00">MFZJniUtils</text>
</g>
<g id="clust1" class="cluster">
<title>cluster_FragmentCapture</title>
<polygon fill="none" stroke="black" points="8,-259.5 8,-336.5 126,-336.5 126,-259.5 8,-259.5"/>
<text text-anchor="middle" x="67" y="-321.3" font-family="Times New Roman,serif" font-size="14.00">FragmentCapture</text>
</g>
<g id="clust6" class="cluster">
<title>cluster_OpenCV</title>
<polygon fill="none" stroke="black" points="727,-335.5 727,-422.5 866,-422.5 866,-335.5 727,-335.5"/>
<text text-anchor="middle" x="796.5" y="-407.3" font-family="Times New Roman,serif" font-size="14.00">OpenCV</text>
</g>
<g id="clust4" class="cluster">
<title>cluster_Pose</title>
<polygon fill="none" stroke="black" points="421,-259.5 421,-336.5 492,-336.5 492,-259.5 421,-259.5"/>
<text text-anchor="middle" x="456.5" y="-321.3" font-family="Times New Roman,serif" font-size="14.00">Pose</text>
</g>
<g id="clust7" class="cluster">
<title>cluster_FactoryTensor</title>
<polygon fill="none" stroke="black" points="756.5,-45.5 756.5,-327.5 1666,-327.5 1666,-45.5 756.5,-45.5"/>
<text text-anchor="middle" x="1211.25" y="-312.3" font-family="Times New Roman,serif" font-size="14.00">FactoryTensor</text>
</g>
<!-- runInspection -->
<g id="node1" class="node">
<title>runInspection</title>
<polygon fill="none" stroke="black" points="16,-268.5 16,-304.5 118,-304.5 118,-268.5 16,-268.5"/>
<text text-anchor="middle" x="67" y="-282.8" font-family="Times New Roman,serif" font-size="14.00">runInspection()</text>
</g>
<!-- inspect -->
<g id="node2" class="node">
<title>inspect</title>
<polygon fill="none" stroke="black" points="154,-263.5 154,-309.5 241,-309.5 241,-263.5 154,-263.5"/>
<text text-anchor="middle" x="197.5" y="-294.3" font-family="Times New Roman,serif" font-size="14.00">JNI interface</text>
<polyline fill="none" stroke="black" points="154,-286.5 241,-286.5 "/>
<text text-anchor="middle" x="197.5" y="-271.3" font-family="Times New Roman,serif" font-size="14.00">inspect(...)</text>
</g>
<!-- runInspection&#45;&gt;inspect -->
<g id="edge8" class="edge">
<title>runInspection&#45;&gt;inspect</title>
<path fill="none" stroke="black" d="M118.05,-286.5C126.47,-286.5 135.23,-286.5 143.71,-286.5"/>
<polygon fill="black" stroke="black" points="143.88,-290 153.88,-286.5 143.88,-283 143.88,-290"/>
</g>
<!-- PoseInspect -->
<g id="node3" class="node">
<title>PoseInspect</title>
<polygon fill="none" stroke="black" points="277,-263.5 277,-309.5 393,-309.5 393,-263.5 277,-263.5"/>
<text text-anchor="middle" x="335" y="-294.3" font-family="Times New Roman,serif" font-size="14.00">C++/JNI wrapper</text>
<polyline fill="none" stroke="black" points="277,-286.5 393,-286.5 "/>
<text text-anchor="middle" x="335" y="-271.3" font-family="Times New Roman,serif" font-size="14.00">PoseInspect(...)</text>
</g>
<!-- inspect&#45;&gt;PoseInspect -->
<g id="edge9" class="edge">
<title>inspect&#45;&gt;PoseInspect</title>
<path fill="none" stroke="black" d="M241,-286.5C249.15,-286.5 257.86,-286.5 266.56,-286.5"/>
<polygon fill="black" stroke="black" points="266.75,-290 276.75,-286.5 266.75,-283 266.75,-290"/>
</g>
<!-- Pose -->
<g id="node4" class="node">
<title>Pose</title>
<polygon fill="none" stroke="black" points="429,-268.5 429,-304.5 484,-304.5 484,-268.5 429,-268.5"/>
<text text-anchor="middle" x="456.5" y="-282.8" font-family="Times New Roman,serif" font-size="14.00">run(...)</text>
</g>
<!-- PoseInspect&#45;&gt;Pose -->
<g id="edge10" class="edge">
<title>PoseInspect&#45;&gt;Pose</title>
<path fill="none" stroke="black" d="M393.3,-286.5C401.96,-286.5 410.69,-286.5 418.77,-286.5"/>
<polygon fill="black" stroke="black" points="418.93,-290 428.93,-286.5 418.93,-283 418.93,-290"/>
</g>
<!-- TensorPoseThread -->
<g id="node5" class="node">
<title>TensorPoseThread</title>
<polygon fill="none" stroke="black" points="528.5,-296.5 528.5,-317.5 691.5,-317.5 691.5,-296.5 528.5,-296.5"/>
<text text-anchor="start" x="556" y="-303.3" font-family="Times New Roman,serif" font-size="14.00">TensorPoseThread</text>
<polygon fill="none" stroke="black" points="528.5,-275.5 528.5,-296.5 691.5,-296.5 691.5,-275.5 528.5,-275.5"/>
<text text-anchor="start" x="531.5" y="-282.3" font-family="Times New Roman,serif" font-size="14.00">create thread for each image</text>
<polygon fill="none" stroke="black" points="528.5,-254.5 528.5,-275.5 691.5,-275.5 691.5,-254.5 528.5,-254.5"/>
<text text-anchor="start" x="600.5" y="-261.3" font-family="Times New Roman,serif" font-size="14.00">run</text>
</g>
<!-- Pose&#45;&gt;TensorPoseThread -->
<g id="edge11" class="edge">
<title>Pose&#45;&gt;TensorPoseThread</title>
<path fill="none" stroke="black" d="M484.15,-286.5C491.73,-286.5 500.47,-286.5 509.73,-286.5"/>
<polygon fill="black" stroke="black" points="509.94,-290 519.94,-286.5 509.94,-283 509.94,-290"/>
</g>
<!-- flip -->
<g id="node6" class="node">
<title>flip</title>
<polygon fill="none" stroke="black" points="735,-344.5 735,-390.5 858,-390.5 858,-344.5 735,-344.5"/>
<text text-anchor="middle" x="796.5" y="-375.3" font-family="Times New Roman,serif" font-size="14.00">flip captured image</text>
<polyline fill="none" stroke="black" points="735,-367.5 858,-367.5 "/>
<text text-anchor="middle" x="796.5" y="-352.3" font-family="Times New Roman,serif" font-size="14.00">flip(...)</text>
</g>
<!-- TensorPoseThread&#45;&gt;flip -->
<g id="edge14" class="edge">
<title>TensorPoseThread&#45;&gt;flip</title>
<path fill="none" stroke="black" d="M691.64,-322.03C705.76,-328.21 720.24,-334.55 733.74,-340.46"/>
<polygon fill="black" stroke="black" points="732.34,-343.67 742.9,-344.47 735.15,-337.25 732.34,-343.67"/>
</g>
<!-- pose -->
<g id="node7" class="node">
<title>pose</title>
<polygon fill="none" stroke="black" points="764.5,-144.5 764.5,-180.5 828.5,-180.5 828.5,-144.5 764.5,-144.5"/>
<text text-anchor="middle" x="796.5" y="-158.8" font-family="Times New Roman,serif" font-size="14.00">pose(...)</text>
</g>
<!-- TensorPoseThread&#45;&gt;pose -->
<g id="edge12" class="edge">
<title>TensorPoseThread&#45;&gt;pose</title>
<path fill="none" stroke="black" d="M663.51,-250.97C694.44,-230.24 732.62,-204.65 759.94,-186.33"/>
<polygon fill="black" stroke="black" points="762.05,-189.13 768.41,-180.66 758.15,-183.32 762.05,-189.13"/>
</g>
<!-- performImageInspection -->
<g id="node8" class="node">
<title>performImageInspection</title>
<polygon fill="none" stroke="black" points="894,-144.5 894,-180.5 1068,-180.5 1068,-144.5 894,-144.5"/>
<text text-anchor="middle" x="981" y="-158.8" font-family="Times New Roman,serif" font-size="14.00">performImageInspection(...)</text>
</g>
<!-- pose&#45;&gt;performImageInspection -->
<g id="edge1" class="edge">
<title>pose&#45;&gt;performImageInspection</title>
<path fill="none" stroke="black" d="M839.1,-162.5C852.46,-162.5 867.86,-162.5 883.47,-162.5"/>
<polygon fill="black" stroke="black" points="838.87,-159 828.87,-162.5 838.87,-166 838.87,-159"/>
<polygon fill="black" stroke="black" points="883.74,-166 893.74,-162.5 883.74,-159 883.74,-166"/>
</g>
<!-- OpenCV -->
<g id="node15" class="node">
<title>OpenCV</title>
<polygon fill="none" stroke="black" points="947.5,-0.5 947.5,-36.5 1014.5,-36.5 1014.5,-0.5 947.5,-0.5"/>
<text text-anchor="middle" x="981" y="-14.8" font-family="Times New Roman,serif" font-size="14.00">OpenCV</text>
</g>
<!-- pose&#45;&gt;OpenCV -->
<g id="edge13" class="edge">
<title>pose&#45;&gt;OpenCV</title>
<path fill="none" stroke="black" d="M807.02,-144.29C821.92,-117.59 853.3,-68.13 894,-41.5 906.92,-33.04 922.86,-27.68 937.5,-24.29"/>
<polygon fill="black" stroke="black" points="938.28,-27.7 947.36,-22.24 936.86,-20.85 938.28,-27.7"/>
</g>
<!-- detectFace -->
<g id="node9" class="node">
<title>detectFace</title>
<polygon fill="none" stroke="black" points="1134,-86.5 1134,-132.5 1321,-132.5 1321,-86.5 1134,-86.5"/>
<text text-anchor="middle" x="1227.5" y="-117.3" font-family="Times New Roman,serif" font-size="14.00">Find single face in image</text>
<polyline fill="none" stroke="black" points="1134,-109.5 1321,-109.5 "/>
<text text-anchor="middle" x="1227.5" y="-94.3" font-family="Times New Roman,serif" font-size="14.00">FactoryTensor::detectFace(...)</text>
</g>
<!-- performImageInspection&#45;&gt;detectFace -->
<g id="edge2" class="edge">
<title>performImageInspection:s&#45;&gt;detectFace:n</title>
<path fill="none" stroke="black" d="M990.36,-139.86C1029.41,-134.3 1179.06,-142.7 1218.13,-137.14"/>
<polygon fill="black" stroke="black" points="989.05,-136.62 981,-143.5 991.59,-143.14 989.05,-136.62"/>
<polygon fill="black" stroke="black" points="1219.44,-140.38 1227.5,-133.5 1216.91,-133.86 1219.44,-140.38"/>
</g>
<!-- predictFromHeatMap -->
<g id="node10" class="node">
<title>predictFromHeatMap</title>
<polygon fill="none" stroke="black" points="1104,-151.5 1104,-197.5 1351,-197.5 1351,-151.5 1104,-151.5"/>
<text text-anchor="middle" x="1227.5" y="-182.3" font-family="Times New Roman,serif" font-size="14.00">Prepare/run TF Pose</text>
<polyline fill="none" stroke="black" points="1104,-174.5 1351,-174.5 "/>
<text text-anchor="middle" x="1227.5" y="-159.3" font-family="Times New Roman,serif" font-size="14.00">FactoryTensor::predictFromHeatMap(...)</text>
</g>
<!-- performImageInspection&#45;&gt;predictFromHeatMap -->
<g id="edge3" class="edge">
<title>performImageInspection&#45;&gt;predictFromHeatMap</title>
<path fill="none" stroke="black" d="M1078.32,-167.23C1083.43,-167.48 1088.6,-167.73 1093.79,-167.99"/>
<polygon fill="black" stroke="black" points="1078.36,-163.73 1068.2,-166.73 1078.02,-170.72 1078.36,-163.73"/>
<polygon fill="black" stroke="black" points="1093.64,-171.48 1103.8,-168.48 1093.98,-164.49 1093.64,-171.48"/>
</g>
<!-- processImage -->
<g id="node11" class="node">
<title>processImage</title>
<polygon fill="none" stroke="black" points="1420.5,-54.5 1420.5,-100.5 1624.5,-100.5 1624.5,-54.5 1420.5,-54.5"/>
<text text-anchor="middle" x="1522.5" y="-85.3" font-family="Times New Roman,serif" font-size="14.00">Scale, crop, dialate, floodfill</text>
<polyline fill="none" stroke="black" points="1420.5,-77.5 1624.5,-77.5 "/>
<text text-anchor="middle" x="1522.5" y="-62.3" font-family="Times New Roman,serif" font-size="14.00">FactoryTensor::processImage(...)</text>
</g>
<!-- predictFromHeatMap&#45;&gt;processImage -->
<g id="edge4" class="edge">
<title>predictFromHeatMap&#45;&gt;processImage</title>
<path fill="none" stroke="black" d="M1340.83,-147.51C1344.31,-145.93 1347.7,-144.26 1351,-142.5 1369.88,-132.4 1368.05,-120.45 1387,-110.5 1394.5,-106.56 1402.48,-103.08 1410.66,-100.01"/>
<polygon fill="black" stroke="black" points="1339.32,-144.35 1331.49,-151.49 1342.06,-150.79 1339.32,-144.35"/>
<polygon fill="black" stroke="black" points="1412.09,-103.22 1420.35,-96.59 1409.76,-96.62 1412.09,-103.22"/>
</g>
<!-- OpenCV_F32 -->
<g id="node12" class="node">
<title>OpenCV_F32</title>
<polygon fill="none" stroke="black" points="1461.5,-119.5 1461.5,-165.5 1583.5,-165.5 1583.5,-119.5 1461.5,-119.5"/>
<text text-anchor="middle" x="1522.5" y="-150.3" font-family="Times New Roman,serif" font-size="14.00">Convert to float 32</text>
<polyline fill="none" stroke="black" points="1461.5,-142.5 1583.5,-142.5 "/>
<text text-anchor="middle" x="1522.5" y="-127.3" font-family="Times New Roman,serif" font-size="14.00">cv::convertTo(...)</text>
</g>
<!-- predictFromHeatMap&#45;&gt;OpenCV_F32 -->
<g id="edge5" class="edge">
<title>predictFromHeatMap&#45;&gt;OpenCV_F32</title>
<path fill="none" stroke="black" d="M1361.38,-159.99C1392.38,-156.6 1424.21,-153.13 1451.24,-150.17"/>
<polygon fill="black" stroke="black" points="1360.62,-156.55 1351.06,-161.11 1361.38,-163.51 1360.62,-156.55"/>
<polygon fill="black" stroke="black" points="1451.79,-153.63 1461.35,-149.07 1451.03,-146.68 1451.79,-153.63"/>
</g>
<!-- FactoryTensorOp -->
<g id="node13" class="node">
<title>FactoryTensorOp</title>
<polygon fill="none" stroke="black" points="1387,-184.5 1387,-230.5 1658,-230.5 1658,-184.5 1387,-184.5"/>
<text text-anchor="middle" x="1522.5" y="-215.3" font-family="Times New Roman,serif" font-size="14.00">Post TF run request</text>
<polyline fill="none" stroke="black" points="1387,-207.5 1658,-207.5 "/>
<text text-anchor="middle" x="1522.5" y="-192.3" font-family="Times New Roman,serif" font-size="14.00">FactoryTensorOp(FactoryTensorOpPose,...)</text>
</g>
<!-- predictFromHeatMap&#45;&gt;FactoryTensorOp -->
<g id="edge6" class="edge">
<title>predictFromHeatMap&#45;&gt;FactoryTensorOp</title>
<path fill="none" stroke="black" d="M1351.06,-188.3C1359.51,-189.26 1368.08,-190.22 1376.63,-191.18"/>
<polygon fill="black" stroke="black" points="1376.34,-194.67 1386.66,-192.31 1377.12,-187.72 1376.34,-194.67"/>
</g>
<!-- FactoryTensorOp_Wait -->
<g id="node14" class="node">
<title>FactoryTensorOp_Wait</title>
<polygon fill="none" stroke="black" points="1418,-249.5 1418,-295.5 1627,-295.5 1627,-249.5 1418,-249.5"/>
<text text-anchor="middle" x="1522.5" y="-280.3" font-family="Times New Roman,serif" font-size="14.00">Wait for TF run result</text>
<polyline fill="none" stroke="black" points="1418,-272.5 1627,-272.5 "/>
<text text-anchor="middle" x="1522.5" y="-257.3" font-family="Times New Roman,serif" font-size="14.00">FactoryTensorOpQueue::popWait</text>
</g>
<!-- predictFromHeatMap&#45;&gt;FactoryTensorOp_Wait -->
<g id="edge7" class="edge">
<title>predictFromHeatMap&#45;&gt;FactoryTensorOp_Wait</title>
<path fill="none" stroke="black" d="M1287.36,-201.67C1316.85,-214.6 1353.36,-229.57 1387,-240.5 1396.93,-243.73 1407.37,-246.78 1417.86,-249.63"/>
<polygon fill="black" stroke="black" points="1288.61,-198.4 1278.05,-197.55 1285.78,-204.8 1288.61,-198.4"/>
</g>
</g>
</svg>
